<svg width="50" height="50" viewBox="0 0 50 50" fill="none" xmlns="http://www.w3.org/2000/svg">
<path d="M0 24.3902C0 12.8926 0 7.14374 3.57187 3.57187C7.14374 0 12.8926 0 24.3902 0H25.6098C37.1074 0 42.8563 0 46.4281 3.57187C50 7.14374 50 12.8926 50 24.3902V25.6098C50 37.1074 50 42.8563 46.4281 46.4281C42.8563 50 37.1074 50 25.6098 50H24.3902C12.8926 50 7.14374 50 3.57187 46.4281C0 42.8563 0 37.1074 0 25.6098V24.3902Z" fill="#E5F4F2"/>
<path opacity="0.2" d="M19.168 34.0335C19.0935 34.1091 19.0048 34.1692 18.9069 34.2102C18.809 34.2512 18.7039 34.2723 18.5978 34.2723C18.4917 34.2723 18.3866 34.2512 18.2887 34.2102C18.1908 34.1692 18.102 34.1091 18.0276 34.0335L15.9668 31.9727C15.8912 31.8983 15.8311 31.8095 15.7901 31.7116C15.7491 31.6137 15.728 31.5086 15.728 31.4025C15.728 31.2964 15.7491 31.1913 15.7901 31.0934C15.8311 30.9955 15.8912 30.9068 15.9668 30.8323L26.6008 20.1982L29.8021 23.3995L19.168 34.0335Z" fill="#009379"/>
<path d="M33.8037 25.0001V29.802" stroke="#009379" stroke-width="1.44817" stroke-linecap="round" stroke-linejoin="round"/>
<path d="M31.4028 27.4009H36.2047" stroke="#009379" stroke-width="1.44817" stroke-linecap="round" stroke-linejoin="round"/>
<path d="M20.5986 16.1967V20.1982" stroke="#009379" stroke-width="1.44817" stroke-linecap="round" stroke-linejoin="round"/>
<path d="M18.5977 18.1974H22.5992" stroke="#009379" stroke-width="1.44817" stroke-linecap="round" stroke-linejoin="round"/>
<path d="M29.002 30.6022V33.8035" stroke="#009379" stroke-width="1.44817" stroke-linecap="round" stroke-linejoin="round"/>
<path d="M27.4009 32.2028H30.6021" stroke="#009379" stroke-width="1.44817" stroke-linecap="round" stroke-linejoin="round"/>
<path d="M30.8449 15.9598L15.9687 30.8359C15.6562 31.1484 15.6562 31.6552 15.9687 31.9677L18.0378 34.0368C18.3503 34.3493 18.8571 34.3493 19.1696 34.0368L34.0457 19.1607C34.3583 18.8481 34.3583 18.3414 34.0457 18.0288L31.9767 15.9598C31.6641 15.6472 31.1574 15.6472 30.8449 15.9598Z" stroke="#009379" stroke-width="1.44817" stroke-linecap="round" stroke-linejoin="round"/>
<path d="M26.6006 20.1982L29.8018 23.3995" stroke="#009379" stroke-width="1.44817" stroke-linecap="round" stroke-linejoin="round"/>
</svg>
