<svg width="50" height="50" viewBox="0 0 50 50" fill="none" xmlns="http://www.w3.org/2000/svg">
<path d="M0 24.3902C0 12.8926 0 7.14374 3.57187 3.57187C7.14374 0 12.8926 0 24.3902 0H25.6098C37.1074 0 42.8563 0 46.4281 3.57187C50 7.14374 50 12.8926 50 24.3902V25.6098C50 37.1074 50 42.8563 46.4281 46.4281C42.8563 50 37.1074 50 25.6098 50H24.3902C12.8926 50 7.14374 50 3.57187 46.4281C0 42.8563 0 37.1074 0 25.6098V24.3902Z" fill="#E5F4F2"/>
<path opacity="0.2" d="M29.902 19.0778C30.36 19.9118 30.6008 20.8475 30.6023 21.7989V22.189C30.6039 22.5503 30.4817 22.9013 30.256 23.1834C30.0302 23.4656 29.7147 23.6618 29.3618 23.7396C27.9304 24.0595 26.4669 24.2139 25.0002 24.1998C23.5335 24.2139 22.07 24.0595 20.6385 23.7396C20.2857 23.6618 19.9701 23.4656 19.7444 23.1834C19.5187 22.9013 19.3964 22.5503 19.398 22.189V21.8789C19.3986 20.8969 19.6537 19.9319 20.1383 19.0778C16.3869 19.8481 13.7959 21.4987 13.7959 23.3995C13.7959 26.0505 18.8078 28.2013 25.0002 28.2013C31.1925 28.2013 36.2044 26.0505 36.2044 23.3995C36.2044 21.4987 33.6335 19.8581 29.902 19.0778Z" fill="#009379"/>
<path d="M29.0815 31.0723L29.4717 33.4332" stroke="#009379" stroke-width="1.44817" stroke-linecap="round" stroke-linejoin="round"/>
<path d="M25 31.4025V34.6037" stroke="#009379" stroke-width="1.44817" stroke-linecap="round" stroke-linejoin="round"/>
<path d="M20.9185 31.0723L20.5283 33.4332" stroke="#009379" stroke-width="1.44817" stroke-linecap="round" stroke-linejoin="round"/>
<path d="M29.902 19.0778C33.6335 19.8581 36.2044 21.4987 36.2044 23.3995C36.2044 26.0505 31.1925 28.2013 25.0002 28.2013C18.8078 28.2013 13.7959 26.0505 13.7959 23.3995C13.7959 21.4987 16.3869 19.8481 20.1383 19.0778" stroke="#009379" stroke-width="1.44817" stroke-linecap="round" stroke-linejoin="round"/>
<path d="M19.398 22.1889C19.3964 22.5502 19.5186 22.9012 19.7443 23.1833C19.97 23.4654 20.2856 23.6617 20.6384 23.7395C22.0699 24.0594 23.5334 24.2138 25.0001 24.1997C26.4668 24.2138 27.9303 24.0594 29.3618 23.7395C29.7146 23.6617 30.0302 23.4654 30.2559 23.1833C30.4816 22.9012 30.6038 22.5502 30.6022 22.1889V21.7987C30.6023 21.0571 30.4551 20.3229 30.1692 19.6386C29.8833 18.9543 29.4644 18.3336 28.9367 17.8125C28.4091 17.2913 27.7832 16.8802 27.0954 16.6028C26.4076 16.3254 25.6716 16.1873 24.9301 16.1966C21.8489 16.2366 19.398 18.8076 19.398 21.8788V22.1889Z" stroke="#009379" stroke-width="1.44817" stroke-linecap="round" stroke-linejoin="round"/>
</svg>
