<svg width="50" height="50" viewBox="0 0 50 50" fill="none" xmlns="http://www.w3.org/2000/svg">
<path d="M0 24.3902C0 12.8926 0 7.14374 3.57187 3.57187C7.14374 0 12.8926 0 24.3902 0H25.6098C37.1074 0 42.8563 0 46.4281 3.57187C50 7.14374 50 12.8926 50 24.3902V25.6098C50 37.1074 50 42.8563 46.4281 46.4281C42.8563 50 37.1074 50 25.6098 50H24.3902C12.8926 50 7.14374 50 3.57187 46.4281C0 42.8563 0 37.1074 0 25.6098V24.3902Z" fill="#E5F4F2"/>
<path opacity="0.2" d="M15.5065 19.658C15.434 19.7825 15.3961 19.924 15.3965 20.0681V29.9319C15.3973 30.0744 15.4356 30.2141 15.5076 30.3371C15.5796 30.46 15.6827 30.5618 15.8066 30.6321L24.61 35.584C24.7287 35.6518 24.8635 35.6864 25.0001 35.6841L25.0902 25L15.5065 19.658Z" fill="#009379"/>
<path d="M34.6038 29.932V20.0682C34.603 19.9257 34.5647 19.786 34.4927 19.663C34.4207 19.5401 34.3175 19.4383 34.1936 19.3679L25.3903 14.4161C25.2717 14.3476 25.1371 14.3115 25.0001 14.3115C24.8632 14.3115 24.7286 14.3476 24.61 14.4161L15.8066 19.3679C15.6827 19.4383 15.5796 19.5401 15.5076 19.663C15.4356 19.786 15.3972 19.9257 15.3965 20.0682V29.932C15.3972 30.0745 15.4356 30.2142 15.5076 30.3372C15.5796 30.4601 15.6827 30.5619 15.8066 30.6322L24.61 35.5841C24.7286 35.6526 24.8632 35.6887 25.0001 35.6887C25.1371 35.6887 25.2717 35.6526 25.3903 35.5841L34.1936 30.6322C34.3175 30.5619 34.4207 30.4601 34.4927 30.3372C34.5647 30.2142 34.603 30.0745 34.6038 29.932V29.932Z" stroke="#009379" stroke-width="1.44817" stroke-linecap="round" stroke-linejoin="round"/>
<path d="M29.9019 27.4509V22.2489L20.1982 16.8969" stroke="#009379" stroke-width="1.44817" stroke-linecap="round" stroke-linejoin="round"/>
<path d="M34.4936 19.658L25.09 25L15.5063 19.658" stroke="#009379" stroke-width="1.44817" stroke-linecap="round" stroke-linejoin="round"/>
<path d="M25.09 25L25 35.6841" stroke="#009379" stroke-width="1.44817" stroke-linecap="round" stroke-linejoin="round"/>
</svg>
