<svg width="50" height="50" viewBox="0 0 50 50" fill="none" xmlns="http://www.w3.org/2000/svg">
<path d="M0 24.3902C0 12.8926 0 7.14374 3.57187 3.57187C7.14374 0 12.8926 0 24.3902 0H25.6098C37.1074 0 42.8563 0 46.4281 3.57187C50 7.14374 50 12.8926 50 24.3902V25.6098C50 37.1074 50 42.8563 46.4281 46.4281C42.8563 50 37.1074 50 25.6098 50H24.3902C12.8926 50 7.14374 50 3.57187 46.4281C0 42.8563 0 37.1074 0 25.6098V24.3902Z" fill="#E5F4F2"/>
<path opacity="0.2" d="M33.0035 16.1967H29.8023C29.3603 16.1967 29.002 16.555 29.002 16.997V20.1982C29.002 20.6402 29.3603 20.9985 29.8023 20.9985H33.0035C33.4455 20.9985 33.8038 20.6402 33.8038 20.1982V16.997C33.8038 16.555 33.4455 16.1967 33.0035 16.1967Z" fill="#009379"/>
<path opacity="0.2" d="M16.9971 16.242H20.1983C20.6153 16.242 20.9534 16.58 20.9534 16.997V20.1982C20.9534 20.6152 20.6153 20.9533 20.1983 20.9533H16.9971C16.5801 20.9533 16.242 20.6152 16.242 20.1982V16.997C16.242 16.58 16.5801 16.242 16.9971 16.242Z" fill="#009379" stroke="#009379" stroke-width="0.0905107"/>
<path opacity="0.2" d="M29.8023 29.0467H33.0035C33.4205 29.0467 33.7585 29.3848 33.7585 29.8018V33.003C33.7585 33.42 33.4205 33.758 33.0035 33.758H29.8023C29.3853 33.758 29.0472 33.42 29.0472 33.003V29.8018C29.0472 29.3848 29.3853 29.0467 29.8023 29.0467Z" fill="#009379" stroke="#009379" stroke-width="0.0905107"/>
<path opacity="0.2" d="M16.9971 29.0467H20.1983C20.6153 29.0467 20.9534 29.3848 20.9534 29.8018V33.003C20.9534 33.42 20.6153 33.758 20.1983 33.758H16.9971C16.5801 33.758 16.242 33.42 16.242 33.003V29.8018C16.242 29.3848 16.5801 29.0467 16.9971 29.0467Z" fill="#009379" stroke="#009379" stroke-width="0.0905107"/>
<path d="M33.0035 16.1967H29.8023C29.3603 16.1967 29.002 16.555 29.002 16.997V20.1982C29.002 20.6402 29.3603 20.9985 29.8023 20.9985H33.0035C33.4455 20.9985 33.8038 20.6402 33.8038 20.1982V16.997C33.8038 16.555 33.4455 16.1967 33.0035 16.1967Z" stroke="#009379" stroke-width="1.44817" stroke-linecap="round" stroke-linejoin="round"/>
<path d="M20.1983 16.1967H16.9971C16.5551 16.1967 16.1968 16.555 16.1968 16.997V20.1982C16.1968 20.6402 16.5551 20.9985 16.9971 20.9985H20.1983C20.6403 20.9985 20.9986 20.6402 20.9986 20.1982V16.997C20.9986 16.555 20.6403 16.1967 20.1983 16.1967Z" stroke="#009379" stroke-width="1.44817" stroke-linecap="round" stroke-linejoin="round"/>
<path d="M33.0035 29.0015H29.8023C29.3603 29.0015 29.002 29.3598 29.002 29.8018V33.003C29.002 33.445 29.3603 33.8033 29.8023 33.8033H33.0035C33.4455 33.8033 33.8038 33.445 33.8038 33.003V29.8018C33.8038 29.3598 33.4455 29.0015 33.0035 29.0015Z" stroke="#009379" stroke-width="1.44817" stroke-linecap="round" stroke-linejoin="round"/>
<path d="M20.1983 29.0015H16.9971C16.5551 29.0015 16.1968 29.3598 16.1968 29.8018V33.003C16.1968 33.445 16.5551 33.8033 16.9971 33.8033H20.1983C20.6403 33.8033 20.9986 33.445 20.9986 33.003V29.8018C20.9986 29.3598 20.6403 29.0015 20.1983 29.0015Z" stroke="#009379" stroke-width="1.44817" stroke-linecap="round" stroke-linejoin="round"/>
<path d="M18.5977 29.0016V20.9985" stroke="#009379" stroke-width="1.44817" stroke-linecap="round" stroke-linejoin="round"/>
<path d="M29.0016 31.4025H20.9985" stroke="#009379" stroke-width="1.44817" stroke-linecap="round" stroke-linejoin="round"/>
<path d="M31.4028 20.9985V29.0016" stroke="#009379" stroke-width="1.44817" stroke-linecap="round" stroke-linejoin="round"/>
<path d="M20.9985 18.5975H29.0016" stroke="#009379" stroke-width="1.44817" stroke-linecap="round" stroke-linejoin="round"/>
</svg>
