<svg width="27" height="26" viewBox="0 0 27 26" fill="none" xmlns="http://www.w3.org/2000/svg">
<path d="M14.0077 20.2404L19.8226 23.9325C20.5725 24.4055 21.4956 23.7017 21.2763 22.8364L19.5919 16.2138C19.5463 16.0302 19.5535 15.8375 19.6127 15.6579C19.6719 15.4783 19.7807 15.319 19.9264 15.1985L25.1414 10.8488C25.8222 10.2835 25.476 9.14125 24.5876 9.08356L17.7804 8.64513C17.5947 8.63432 17.4161 8.56965 17.2666 8.459C17.117 8.34836 17.0029 8.19654 16.9382 8.0221L14.3999 1.63027C14.3327 1.44556 14.2103 1.28599 14.0493 1.17324C13.8883 1.06048 13.6966 1 13.5 1C13.3034 1 13.1117 1.06048 12.9507 1.17324C12.7897 1.28599 12.6673 1.44556 12.6001 1.63027L10.0618 8.0221C9.9971 8.19654 9.883 8.34836 9.73342 8.459C9.58385 8.56965 9.40529 8.63432 9.21955 8.64513L2.41237 9.08356C1.52397 9.14125 1.17784 10.2835 1.85856 10.8488L7.07356 15.1985C7.21932 15.319 7.32806 15.4783 7.38726 15.6579C7.44645 15.8375 7.4537 16.0302 7.40815 16.2138L5.85057 22.3518C5.58521 23.3902 6.69282 24.2324 7.58121 23.6671L12.9923 20.2404C13.1441 20.1439 13.3202 20.0927 13.5 20.0927C13.6798 20.0927 13.8559 20.1439 14.0077 20.2404V20.2404Z" fill="#F8D57E" stroke="#F8D57E" stroke-width="2" stroke-linecap="round" stroke-linejoin="round"/>
</svg>
