<svg width="310" height="26" viewBox="0 0 310 26" fill="none" xmlns="http://www.w3.org/2000/svg">
<path d="M97.5077 20.5563L103.323 24.2484C104.073 24.7214 104.996 24.0176 104.776 23.1523L103.092 16.5297C103.046 16.3461 103.054 16.1534 103.113 15.9738C103.172 15.7942 103.281 15.6349 103.426 15.5144L108.641 11.1647C109.322 10.5994 108.976 9.45717 108.088 9.39948L101.28 8.96105C101.095 8.95024 100.916 8.88557 100.767 8.77492C100.617 8.66428 100.503 8.51246 100.438 8.33802L97.8999 1.94619C97.8327 1.76147 97.7103 1.60191 97.5493 1.48916C97.3883 1.3764 97.1966 1.31592 97 1.31592C96.8034 1.31592 96.6117 1.3764 96.4507 1.48916C96.2897 1.60191 96.1673 1.76147 96.1001 1.94619L93.5618 8.33802C93.4971 8.51246 93.383 8.66428 93.2334 8.77492C93.0839 8.88557 92.9053 8.95024 92.7196 8.96105L85.9124 9.39948C85.024 9.45717 84.6778 10.5994 85.3586 11.1647L90.5736 15.5144C90.7193 15.6349 90.8281 15.7942 90.8873 15.9738C90.9465 16.1534 90.9537 16.3461 90.9081 16.5297L89.3506 22.6677C89.0852 23.7061 90.1928 24.5483 91.0812 23.983L96.4923 20.5563C96.6441 20.4598 96.8202 20.4086 97 20.4086C97.1798 20.4086 97.3559 20.4598 97.5077 20.5563Z" fill="#F8D57E" stroke="#F8D57E" stroke-width="2" stroke-linecap="round" stroke-linejoin="round"/>
<path d="M126.508 20.5563L132.323 24.2484C133.073 24.7214 133.996 24.0176 133.776 23.1523L132.092 16.5297C132.046 16.3461 132.054 16.1534 132.113 15.9738C132.172 15.7942 132.281 15.6349 132.426 15.5144L137.641 11.1647C138.322 10.5994 137.976 9.45717 137.088 9.39948L130.28 8.96105C130.095 8.95024 129.916 8.88557 129.767 8.77492C129.617 8.66428 129.503 8.51246 129.438 8.33802L126.9 1.94619C126.833 1.76147 126.71 1.60191 126.549 1.48916C126.388 1.3764 126.197 1.31592 126 1.31592C125.803 1.31592 125.612 1.3764 125.451 1.48916C125.29 1.60191 125.167 1.76147 125.1 1.94619L122.562 8.33802C122.497 8.51246 122.383 8.66428 122.233 8.77492C122.084 8.88557 121.905 8.95024 121.72 8.96105L114.912 9.39948C114.024 9.45717 113.678 10.5994 114.359 11.1647L119.574 15.5144C119.719 15.6349 119.828 15.7942 119.887 15.9738C119.946 16.1534 119.954 16.3461 119.908 16.5297L118.351 22.6677C118.085 23.7061 119.193 24.5483 120.081 23.983L125.492 20.5563C125.644 20.4598 125.82 20.4086 126 20.4086C126.18 20.4086 126.356 20.4598 126.508 20.5563Z" fill="#F8D57E" stroke="#F8D57E" stroke-width="2" stroke-linecap="round" stroke-linejoin="round"/>
<path d="M155.508 20.5563L161.323 24.2484C162.073 24.7214 162.996 24.0176 162.776 23.1523L161.092 16.5297C161.046 16.3461 161.054 16.1534 161.113 15.9738C161.172 15.7942 161.281 15.6349 161.426 15.5144L166.641 11.1647C167.322 10.5994 166.976 9.45717 166.088 9.39948L159.28 8.96105C159.095 8.95024 158.916 8.88557 158.767 8.77492C158.617 8.66428 158.503 8.51246 158.438 8.33802L155.9 1.94619C155.833 1.76147 155.71 1.60191 155.549 1.48916C155.388 1.3764 155.197 1.31592 155 1.31592C154.803 1.31592 154.612 1.3764 154.451 1.48916C154.29 1.60191 154.167 1.76147 154.1 1.94619L151.562 8.33802C151.497 8.51246 151.383 8.66428 151.233 8.77492C151.084 8.88557 150.905 8.95024 150.72 8.96105L143.912 9.39948C143.024 9.45717 142.678 10.5994 143.359 11.1647L148.574 15.5144C148.719 15.6349 148.828 15.7942 148.887 15.9738C148.946 16.1534 148.954 16.3461 148.908 16.5297L147.351 22.6677C147.085 23.7061 148.193 24.5483 149.081 23.983L154.492 20.5563C154.644 20.4598 154.82 20.4086 155 20.4086C155.18 20.4086 155.356 20.4598 155.508 20.5563Z" fill="#F8D57E" stroke="#F8D57E" stroke-width="2" stroke-linecap="round" stroke-linejoin="round"/>
<path d="M184.508 20.5563L190.323 24.2484C191.073 24.7214 191.996 24.0176 191.776 23.1523L190.092 16.5297C190.046 16.3461 190.054 16.1534 190.113 15.9738C190.172 15.7942 190.281 15.6349 190.426 15.5144L195.641 11.1647C196.322 10.5994 195.976 9.45717 195.088 9.39948L188.28 8.96105C188.095 8.95024 187.916 8.88557 187.767 8.77492C187.617 8.66428 187.503 8.51246 187.438 8.33802L184.9 1.94619C184.833 1.76147 184.71 1.60191 184.549 1.48916C184.388 1.3764 184.197 1.31592 184 1.31592C183.803 1.31592 183.612 1.3764 183.451 1.48916C183.29 1.60191 183.167 1.76147 183.1 1.94619L180.562 8.33802C180.497 8.51246 180.383 8.66428 180.233 8.77492C180.084 8.88557 179.905 8.95024 179.72 8.96105L172.912 9.39948C172.024 9.45717 171.678 10.5994 172.359 11.1647L177.574 15.5144C177.719 15.6349 177.828 15.7942 177.887 15.9738C177.946 16.1534 177.954 16.3461 177.908 16.5297L176.351 22.6677C176.085 23.7061 177.193 24.5483 178.081 23.983L183.492 20.5563C183.644 20.4598 183.82 20.4086 184 20.4086C184.18 20.4086 184.356 20.4598 184.508 20.5563Z" fill="#F8D57E" stroke="#F8D57E" stroke-width="2" stroke-linecap="round" stroke-linejoin="round"/>
<path d="M213.508 20.5563L219.323 24.2484C220.073 24.7214 220.996 24.0176 220.776 23.1523L219.092 16.5297C219.046 16.3461 219.054 16.1534 219.113 15.9738C219.172 15.7942 219.281 15.6349 219.426 15.5144L224.641 11.1647C225.322 10.5994 224.976 9.45717 224.088 9.39948L217.28 8.96105C217.095 8.95024 216.916 8.88557 216.767 8.77492C216.617 8.66428 216.503 8.51246 216.438 8.33802L213.9 1.94619C213.833 1.76147 213.71 1.60191 213.549 1.48916C213.388 1.3764 213.197 1.31592 213 1.31592C212.803 1.31592 212.612 1.3764 212.451 1.48916C212.29 1.60191 212.167 1.76147 212.1 1.94619L209.562 8.33802C209.497 8.51246 209.383 8.66428 209.233 8.77492C209.084 8.88557 208.905 8.95024 208.72 8.96105L201.912 9.39948C201.024 9.45717 200.678 10.5994 201.359 11.1647L206.574 15.5144C206.719 15.6349 206.828 15.7942 206.887 15.9738C206.946 16.1534 206.954 16.3461 206.908 16.5297L205.351 22.6677C205.085 23.7061 206.193 24.5483 207.081 23.983L212.492 20.5563C212.644 20.4598 212.82 20.4086 213 20.4086C213.18 20.4086 213.356 20.4598 213.508 20.5563V20.5563Z" stroke="#F8D57E" stroke-width="2" stroke-linecap="round" stroke-linejoin="round"/>
</svg>
